<?xml version="1.0" encoding="utf-8"?>
<!-- Generator: Adobe Illustrator 16.0.0, SVG Export Plug-In . SVG Version: 6.00 Build 0)  -->
<!DOCTYPE svg PUBLIC "-//W3C//DTD SVG 1.1//EN" "http://www.w3.org/Graphics/SVG/1.1/DTD/svg11.dtd">
<svg version="1.1" id="Layer_1" xmlns="http://www.w3.org/2000/svg" xmlns:xlink="http://www.w3.org/1999/xlink" x="0px" y="0px"
	 width="91.744px" height="69.144px" viewBox="4.128 12.54 91.744 69.144" enable-background="new 4.128 12.54 91.744 69.144"
	 xml:space="preserve">
<path fill="none" stroke="#FFFFFF" stroke-width="3" stroke-miterlimit="10" d="M94.329,15.344
	c-0.092-0.708-0.551-1.284-1.334-1.287L6.915,14.04c-0.708,0.093-1.208,0.645-1.287,1.334L5.67,78.87
	c-0.078,0.689,0.55,1.285,1.335,1.287l86.08,0.02c0.689,0.078,1.283-0.551,1.287-1.336L94.329,15.344z M84.068,53.848
	c1.227-0.031,2.236,1.045,2.27,2.27c0.035,1.223-0.965,2.332-2.268,2.27c-1.223,0.033-2.234-1.041-2.268-2.268
	C81.77,54.895,82.844,53.885,84.068,53.848z M77.086,58.456c-1.225,0.033-2.234-1.041-2.268-2.266
	c-0.035-1.227,0.965-2.332,2.266-2.27c1.225-0.033,2.234,1.041,2.27,2.268C79.387,57.413,78.389,58.519,77.086,58.456z
	 M58.334,52.38L47.96,52.326l0.058-10.374l10.371,0.057L58.334,52.38z M67.84,37.947c2.793-0.03,5.062,2.237,5.093,5.033
	c0.027,2.793-2.24,5.062-5.033,5.091c-2.793,0.029-5.062-2.238-5.092-5.033C62.684,40.321,65.047,37.976,67.84,37.947z
	 M46.392,52.318l-10.371-0.055l0.057-10.372l10.372,0.055L46.392,52.318z M47.965,40.899l0.055-10.372l10.371,0.057l-0.056,10.372
	L47.965,40.899z M46.395,40.895l-10.373-0.056l0.057-10.373l10.371,0.057L46.395,40.895z M34.359,40.908l-10.374-0.056l-0.04-10.295
	l10.372,0.056L34.359,40.908z M34.335,41.866l-0.057,10.372l-10.296,0.04l-0.039-10.296L34.335,41.866z M34.408,53.387L34.354,63.76
	l-10.372-0.058l0.055-10.371L34.408,53.387z M35.978,53.393l10.373,0.055L46.294,63.82l-10.371-0.055L35.978,53.393z M48.017,53.379
	l10.372,0.054l-0.058,10.373L47.96,63.748L48.017,53.379z M67.756,56.164c-0.033-1.225,1.041-2.234,2.268-2.268
	c1.223-0.035,2.33,0.963,2.268,2.266c0.033,1.225-1.041,2.236-2.266,2.27C68.799,58.465,67.789,57.391,67.756,56.164z
	 M87.689,36.736l-0.009,7.674c0.498,0.231,0.803,0.614,0.82,1.227l-0.062,1.302c-0.059,0.517-0.291,1.013-0.752,1.221l0.018,0.612
	l-1.303-0.062l-0.016-0.613c-0.496-0.229-0.803-0.615-0.818-1.226l0.062-1.302c0.059-0.517,0.291-1.015,0.75-1.223l0.009-7.674
	L87.689,36.736z M80.283,36.669l0.064,3.236c0.422,0.134,0.705,0.691,0.742,1.132l-0.061,1.3c-0.058,0.518-0.368,0.919-0.655,1.146
	l0.02,5.148l-1.396,0.014l0.057-5.052c-0.498-0.232-0.801-0.615-0.819-1.227l0.062-1.303c-0.018-0.613,0.387-1.089,0.922-1.202
	l0.012-3.138L80.283,36.669z M88.486,22.174c1.225-0.033,2.236,1.042,2.27,2.267c0.034,1.226-1.04,2.235-2.265,2.269
	c-1.227,0.035-2.332-0.964-2.271-2.266C86.186,23.218,87.262,22.208,88.486,22.174z M81.502,22.245
	c1.225-0.034,2.332,0.966,2.268,2.267c0.036,1.224-0.962,2.332-2.263,2.268c-1.227,0.036-2.332-0.964-2.272-2.265
	C79.201,23.29,80.201,22.183,81.502,22.245z M74.439,22.221c1.227-0.034,2.236,1.042,2.27,2.266c0.036,1.224-1.04,2.235-2.265,2.269
	s-2.332-0.965-2.271-2.266C72.141,23.266,73.217,22.254,74.439,22.221z M10.133,18.682l59.404-0.076l0.026,8.113l-59.498,0.152
	L10.133,18.682z M12.004,30.495l10.373,0.056l-0.056,10.372l-10.373-0.055L12.004,30.495z M12.001,41.921l10.374,0.056l-0.057,10.37
	l-10.373-0.054L12.001,41.921z M12,53.344l10.373,0.058l-0.056,10.371l-10.373-0.056L12,53.344z M12.018,75.238L11.998,64.77
	l10.372,0.056l-0.055,10.373L12.018,75.238z M24.055,75.222l0.057-10.369l10.373,0.054l-0.057,10.373L24.055,75.222z M35.921,75.188
	l0.055-10.369l10.373,0.053l-0.058,10.373L35.921,75.188z M47.957,75.174l0.056-10.373l10.373,0.058l-0.058,10.373L47.957,75.174z
	 M70.169,66.297c-1.225,0.035-2.33-0.963-2.268-2.266c-0.035-1.225,1.041-2.234,2.266-2.271c1.225-0.031,2.236,1.043,2.27,2.27
	C72.47,65.253,71.394,66.262,70.169,66.297z M77.058,66.302c-1.223,0.035-2.234-1.041-2.268-2.266
	c-0.033-1.227,0.965-2.332,2.266-2.27c1.227-0.033,2.332,0.967,2.27,2.266C79.358,65.259,78.284,66.269,77.058,66.302z
	 M84.044,66.23c-1.225,0.035-2.332-0.963-2.268-2.266c-0.035-1.225,1.041-2.236,2.264-2.27c1.227-0.033,2.238,1.041,2.271,2.268
	C86.345,65.188,85.345,66.293,84.044,66.23z"/>
</svg>
